<svg width="24" height="24" viewBox="0 0 24 24" fill="none" xmlns="http://www.w3.org/2000/svg">
<path d="M12 24C18.6274 24 24 18.6274 24 12C24 5.37258 18.6274 0 12 0C5.37258 0 0 5.37258 0 12C0 18.6274 5.37258 24 12 24Z" fill="url(#paint0_linear_261_519)"/>
<path d="M10.4658 6H6.52088C6.23321 6 6 6.23321 6 6.52088V10.4658C6 10.7535 6.23321 10.9867 6.52088 10.9867H10.4658C10.7535 10.9867 10.9867 10.7535 10.9867 10.4658V6.52088C10.9867 6.23321 10.7535 6 10.4658 6Z" fill="white" stroke="white"/>
<path d="M10.4658 13.0133H6.52088C6.23321 13.0133 6 13.2465 6 13.5342V17.4791C6 17.7668 6.23321 18 6.52088 18H10.4658C10.7535 18 10.9867 17.7668 10.9867 17.4791V13.5342C10.9867 13.2465 10.7535 13.0133 10.4658 13.0133Z" fill="white" stroke="white"/>
<path d="M17.4791 6H13.5342C13.2465 6 13.0133 6.23321 13.0133 6.52088V10.4658C13.0133 10.7535 13.2465 10.9867 13.5342 10.9867H17.4791C17.7668 10.9867 18 10.7535 18 10.4658V6.52088C18 6.23321 17.7668 6 17.4791 6Z" fill="white" stroke="white"/>
<path d="M17.4791 13.0133H13.5342C13.2465 13.0133 13.0133 13.2465 13.0133 13.5342V17.4791C13.0133 17.7668 13.2465 18 13.5342 18H17.4791C17.7668 18 18 17.7668 18 17.4791V13.5342C18 13.2465 17.7668 13.0133 17.4791 13.0133Z" fill="white" stroke="white"/>
<defs>
<linearGradient id="paint0_linear_261_519" x1="12" y1="0" x2="12" y2="24" gradientUnits="userSpaceOnUse">
<stop stop-color="#FE870E"/>
<stop offset="0.527399" stop-color="#FD6B31"/>
<stop offset="1" stop-color="#FD5250"/>
</linearGradient>
</defs>
</svg>
