<svg width="56" height="56" viewBox="0 0 56 56" fill="none" xmlns="http://www.w3.org/2000/svg">
<g filter="url(#filter0_d_1_5374)">
<rect x="8" y="4" width="40" height="40" rx="4" fill="url(#paint0_linear_1_5374)"/>
<path fill-rule="evenodd" clip-rule="evenodd" d="M22.6181 17.0853C22.6181 16.533 22.1704 16.0853 21.6181 16.0853C21.0658 16.0853 20.6181 16.533 20.6181 17.0853V23.9744C19.6219 24.3717 18.9179 25.3453 18.9179 26.4832C18.9179 27.6212 19.6219 28.5947 20.6181 28.9921V30.0111C20.6181 30.5634 21.0658 31.0111 21.6181 31.0111C22.1704 31.0111 22.6181 30.5634 22.6181 30.0111V28.9919C23.6141 28.5945 24.3179 27.621 24.3179 26.4832C24.3179 25.3454 23.6141 24.372 22.6181 23.9746V17.0853Z" fill="white"/>
<path fill-rule="evenodd" clip-rule="evenodd" d="M34.7821 17.0853C34.7821 16.533 34.3344 16.0853 33.7821 16.0853C33.2299 16.0853 32.7821 16.533 32.7821 17.0853V23.9744C31.7859 24.3717 31.0819 25.3453 31.0819 26.4832C31.0819 27.6212 31.7859 28.5947 32.7821 28.9921V30.0111C32.7821 30.5634 33.2299 31.0111 33.7821 31.0111C34.3344 31.0111 34.7821 30.5634 34.7821 30.0111V28.9919C35.7781 28.5945 36.4819 27.621 36.4819 26.4832C36.4819 25.3454 35.7781 24.372 34.7821 23.9746V17.0853Z" fill="white"/>
<path fill-rule="evenodd" clip-rule="evenodd" d="M28.9999 17.0853C28.9999 16.533 28.5522 16.0853 27.9999 16.0853C27.4476 16.0853 26.9999 16.533 26.9999 17.0853V18.0911C26.004 18.4886 25.3002 19.462 25.3002 20.5998C25.3002 21.7375 26.004 22.7109 26.9999 23.1084V30.0111C26.9999 30.5634 27.4476 31.0111 27.9999 31.0111C28.5522 31.0111 28.9999 30.5634 28.9999 30.0111V23.1087C29.9962 22.7113 30.7002 21.7378 30.7002 20.5998C30.7002 19.4618 29.9962 18.4882 28.9999 18.0909V17.0853Z" fill="white"/>
<path d="M21.6178 27.2901C22.0634 27.2901 22.4246 26.9288 22.4246 26.4832C22.4246 26.0376 22.0634 25.6764 21.6178 25.6764C21.1722 25.6764 20.8109 26.0376 20.8109 26.4832C20.8109 26.9288 21.1722 27.2901 21.6178 27.2901Z" fill="#FD5250"/>
<path d="M28.0001 21.3259C28.4457 21.3259 28.8069 20.9647 28.8069 20.519C28.8069 20.0734 28.4457 19.7122 28.0001 19.7122C27.5545 19.7122 27.1933 20.0734 27.1933 20.519C27.1933 20.9647 27.5545 21.3259 28.0001 21.3259Z" fill="#FD5250"/>
<path d="M33.7819 27.2901C34.2275 27.2901 34.5888 26.9288 34.5888 26.4832C34.5888 26.0376 34.2275 25.6764 33.7819 25.6764C33.3363 25.6764 32.9751 26.0376 32.9751 26.4832C32.9751 26.9288 33.3363 27.2901 33.7819 27.2901Z" fill="#FD5250"/>
</g>
<defs>
<filter id="filter0_d_1_5374" x="0" y="0" width="56" height="56" filterUnits="userSpaceOnUse" color-interpolation-filters="sRGB">
<feFlood flood-opacity="0" result="BackgroundImageFix"/>
<feColorMatrix in="SourceAlpha" type="matrix" values="0 0 0 0 0 0 0 0 0 0 0 0 0 0 0 0 0 0 127 0" result="hardAlpha"/>
<feOffset dy="4"/>
<feGaussianBlur stdDeviation="4"/>
<feColorMatrix type="matrix" values="0 0 0 0 0.992157 0 0 0 0 0.192157 0 0 0 0 0.34902 0 0 0 0.2 0"/>
<feBlend mode="normal" in2="BackgroundImageFix" result="effect1_dropShadow_1_5374"/>
<feBlend mode="normal" in="SourceGraphic" in2="effect1_dropShadow_1_5374" result="shape"/>
</filter>
<linearGradient id="paint0_linear_1_5374" x1="26.9583" y1="44" x2="18.2217" y2="6.00912" gradientUnits="userSpaceOnUse">
<stop stop-color="#FD3159"/>
<stop offset="1" stop-color="#FD505A"/>
</linearGradient>
</defs>
</svg>
