<svg width="16" height="16" viewBox="0 0 16 16" fill="none" xmlns="http://www.w3.org/2000/svg">
<path d="M13.6697 4.39567L12.6627 14.742C12.5856 15.4779 11.9411 16.0274 11.1906 15.9989H4.87855C4.19725 15.9644 3.63155 15.4468 3.55886 14.7653L2.33288 4.39567H13.6689H13.6697ZM9.58371 0.000235284H9.62137C10.3797 0.0278416 10.9726 0.655885 10.9454 1.40212V2.17596H15.5096C15.7811 2.17596 16 2.39163 16 2.65907C16 2.9265 15.7811 3.14218 15.5096 3.14218H0.490395C0.219802 3.14218 0 2.9265 0 2.65907C0 2.39163 0.219802 2.17596 0.490395 2.17596H5.05544V1.40212C5.05457 1.37796 5.05369 1.35294 5.05457 1.32879C5.06858 0.581693 5.69471 -0.0135679 6.45394 0.000235284H9.58284H9.58371ZM6.41541 0.966455L6.37688 0.969906C6.16146 0.99665 6.00996 1.19076 6.03798 1.40212V2.17596H9.96377V1.40212C9.96727 1.37624 9.96815 1.35122 9.96552 1.3262C9.95063 1.11311 9.76323 0.952652 9.54693 0.967318H6.45394C6.42767 0.965593 6.4014 0.966456 6.37601 0.969906L6.41541 0.966455Z" fill="#7F7F7F"/>
</svg>
